<svg xmlns="http://www.w3.org/2000/svg" xmlns:xlink="http://www.w3.org/1999/xlink" viewBox="0,0,300,150" width="480px" height="480px"><g fill="#ffffff" fill-rule="nonzero" stroke="none" stroke-width="1" stroke-linecap="butt" stroke-linejoin="miter" stroke-miterlimit="10" stroke-dasharray="" stroke-dashoffset="0" font-family="none" font-weight="none" font-size="none" text-anchor="none" style="mix-blend-mode: normal"><g transform="scale(4,4)"><path d="M3,10c-1.104,0 -2,0.896 -2,2c0,1.104 0.896,2 2,2h7.29688l4.18555,25.95508c0.472,2.923 2.96283,5.04492 5.92383,5.04492h27.59375c1.104,0 2,-0.896 2,-2c0,-1.104 -0.896,-2 -2,-2h-27.59375c-0.986,0 -1.81566,-0.70764 -1.97266,-1.68164l-0.375,-2.31836h29.55273c2.946,0 5.43497,-2.10867 5.91797,-5.01367l2.44336,-14.6582c0.097,-0.58 -0.06726,-1.17209 -0.44727,-1.62109c-0.38,-0.448 -0.93739,-0.70703 -1.52539,-0.70703h-39.49023l-0.53516,-3.31836c-0.157,-0.97 -0.99361,-1.68164 -1.97461,-1.68164zM15.15625,19h36.48242l-2.05469,12.32813c-0.161,0.968 -0.99166,1.67188 -1.97266,1.67188h-30.19727zM22,49c-2.209,0 -4,1.791 -4,4c0,2.209 1.791,4 4,4c2.209,0 4,-1.791 4,-4c0,-2.209 -1.791,-4 -4,-4zM44,49c-2.209,0 -4,1.791 -4,4c0,2.209 1.791,4 4,4c2.209,0 4,-1.791 4,-4c0,-2.209 -1.791,-4 -4,-4z"></path></g></g></svg>